<svg xmlns="http://www.w3.org/2000/svg" viewBox="0 0 600 800"><defs><radialGradient id="g"><stop stop-color="#ff6b91"/><stop offset=".45" stop-color="#741a3c"/><stop offset="1" stop-color="#10070d"/></radialGradient></defs><rect width="600" height="800" rx="180" fill="url(#g)"/><circle cx="300" cy="330" r="155" fill="#f4c6bb"/><path d="M125 300C115 115 225 55 315 95c110-55 205 45 160 205-55-70-90-118-174-113-80 5-126 66-176 113z" fill="#ec315f"/><path d="M185 345c35-45 70-55 115-15-35 20-80 20-115 15zm115-15c45-40 80-30 115 15-35 5-80 5-115-15z" fill="#241019"/><circle cx="238" cy="337" r="10" fill="#fff"/><circle cx="362" cy="337" r="10" fill="#fff"/><path d="M250 430c32 20 68 20 100 0" fill="none" stroke="#7d2844" stroke-width="8" stroke-linecap="round"/><path d="M175 560c70-70 180-70 250 0l55 170H120z" fill="#19141b"/><path d="M180 570c75 35 165 35 240 0" fill="none" stroke="#ff557f" stroke-width="10"/></svg>